<svg xmlns="http://www.w3.org/2000/svg" viewBox="0 0 32 32">
  <defs>
    <linearGradient id="g" x1="0%" y1="0%" x2="100%" y2="100%">
      <stop offset="0%" stop-color="#4a90d9"/>
      <stop offset="100%" stop-color="#7c4dff"/>
    </linearGradient>
  </defs>
  <rect width="32" height="32" rx="8" fill="url(#g)"/>
  <path d="M16 5 L25 10 L25 18 C25 22.5 21 26 16 28 C11 26 7 22.5 7 18 L7 10 Z" fill="none" stroke="white" stroke-width="1.5" stroke-linejoin="round"/>
  <path d="M16 9 L21 11.5 L21 17 C21 20 18.5 22.5 16 24 C13.5 22.5 11 20 11 17 L11 11.5 Z" fill="rgba(255,255,255,0.15)" stroke="none"/>
  <circle cx="16" cy="15.5" r="2.5" fill="white"/>
  <path d="M16 13 L16 10" stroke="white" stroke-width="1.2" stroke-linecap="round"/>
  <path d="M16 18 L16 20" stroke="white" stroke-width="1.2" stroke-linecap="round"/>
  <path d="M13.5 15.5 L11 15.5" stroke="white" stroke-width="1.2" stroke-linecap="round"/>
  <path d="M18.5 15.5 L21 15.5" stroke="white" stroke-width="1.2" stroke-linecap="round"/>
</svg>